<svg version="1.2" xmlns="http://www.w3.org/2000/svg" viewBox="0 0 638 1374" width="638" height="1374">
	<title>escudoU2014-pdf</title>
	<defs>
		<clipPath clipPathUnits="userSpaceOnUse" id="cp1">
			<path d="m0 0h638v1374h-638z"/>
		</clipPath>
	</defs>
	<style>
		.s0 { fill: #ffffff } 
		.s1 { fill: #06b058 } 
		.s2 { fill: #ffcd33 } 
		.s3 { fill: #ee2927 } 
		.s4 { fill: #1365a7 } 
		.s5 { fill: #000000 } 
	</style>
	<g id="Page 1" clip-path="url(#cp1)">
		<path id="Path 1" class="s0" d="m319.8 1367.9c-11.3-12.3-30.3-17.2-47.4-16.6 0 0-193 0.1-201.5 0-48.9-2.5-67-45.4-67-84.5l0.1-746.2h626.9c0 47.3 0.6 750.5 0.1 755.6-2.1 34.6-23.1 67.5-59.2 74.2-5.2 1-207.4 0.9-207.4 0.9-16.1 0-33.5 3.3-44.6 16.6z"/>
		<path id="Path 2" class="s1" d="m34 550.2h272.6v297.6c-42 4.5-75.5 33.9-81.6 75.3h-191z"/>
		<path id="Path 3" class="s2" d="m327.6 550.2h273.9v373.8h-193.1c-5.7-41.6-39-71.2-80.8-76.1z"/>
		<path id="Path 4" class="s3" d="m33.9 944.4h191.7c1.5 46.4 37.1 82.6 82.5 87.5v296.8c0 0-13.7-7-47.8-7h-149.7c-53.1 0-76.7-11.5-76.7-78.6z"/>
		<path id="Path 5" class="s4" d="m602.4 944.4v298.7c0 73.3-23.7 78.6-76.8 78.6h-149.7c-34.1 0-44.7 8.6-44.7 8.6v-298.6c44.8-5.5 76.5-41.4 78-87.3z"/>
		<path id="Path 6" fill-rule="evenodd" class="s0" d="m51.2 755h75.1c0 0-5.5 22.3-34.3 22.3-28.8 0-40.8-22.3-40.8-22.3zm19.2-125.1l13 5 72.9-7.6 7.4-49.5 10 49.5 72.9 7.6 13-5 1.6 9.3h-86.3l3.2 70.2v115.8h23.4l-25.5 19.7 1.6 44.5c0 0 6.4 3.9 6.4 8.7 0 4.9-7.5 5.9-7.5 5.9h-23c0 0-7.5-1-7.5-5.9 0-4.8 6.4-8.7 6.4-8.7l1.6-44.5-25.6-19.7h23.5v-115.8l3.2-70.2h-86.4zm206.8 125.1c0 0-12 22.3-40.8 22.3-28.8 0-34.3-22.3-34.3-22.3zm-178.5 234.9l10.9 1.1-9.8 8.6 3.1 12-10.7-5.8-11 6.1 2.2-12-9-9 11.3-0.9 6.5-12.5zm-21.5 203l182.6-0.2v78.4c-10.7-4.5-7.1-9.8-15.6-14l-2.4-1.1c-0.8-0.3-7.9-2-7.9-3.2v-39.6h-141.3c-1.7 0-4.7-7.4-5.7-8.6-3-3.9-10.2-6.3-9.7-11.7zm164.8-94.8c21.4 19.3 23.1 52.4 3.8 73.8-19.3 21.4-52.3 23.1-73.7 3.8-21.5-19.3-23.2-52.3-3.9-73.7 19.3-21.4 52.3-23.2 73.8-3.9zm-157.6 76.6l12-54c1.1-4.8 2.2-7.3 5.9-7.6 3.7-0.4 4.6 2.7 5 5.3l10.1 54.5-15.2-35.5zm235-998.5l32.6 62.7 63.1 6.7-48.9 48.8 12.6 65.2-59.4-31.7-58.9 31.7 10-66.4-48-47.6 62.6-6.3zm48.8 987.4l26.2-16.9v-71.6h13v-10.2c0 0 1.8 0.1 3.6 0.3 12.9 1.5 24.9-12.1 37.4-13.1-1.8-3.3-3.7-9.2-3.7-13.2 0-11.9 4.1-18.3 12.5-25.6 2.6-2 3.4 3 2.2 5.9-2.1 5 8.8 9.4 7.3-2.9-0.7-5.9-6.2-9.4-8.5-14.4-0.3-0.7-1.9-3.5-1.9-3.5 0 0 3.4 1.9 5.5 2.9 13.9 6.3 25.5 16.4 16.8 32.6 5.6 3.6 6.9 11.7 4.9 18.2 11.7 2.6 22.4 14.5 35.5 13.1 1.9-0.2 4.4-0.7 4.4-0.7v10.6h12.7v72l18.8 2c1.2 0.1 3.4 4.5 3.4 4.5 1 4.3 0.9 9.1 0.5 13.5 2.1 0.4 20 3.2 21.8 5.3 4.1 4.8 1.7 19.1-1 23.2-1.1 1.7-60.2 76.3-60.2 76.3l-165.1-54.6v-23.1l-8.8-2.9 31.3-16.9 0.2-7.9zm151.2-348.5c1.7-0.1 3.4-0.1 4.6-0.1 19.7 0.3 26.7 10.2 22.9 29.3-0.5 2.6-1.5 5.9-2.3 9.3l22.3 34.3c4.2 5.3-1.5 14-8.1 9l-4.3-4.5c-0.9 0.4-3.3 0.3-4.8 0-10.4-2-17.4-13.8-18.1-25.6-0.1-2-1.4-10-1.3-11.5l-18.3-24.6c-2 0.4-15.2 2.5-15.2 2.5-24.1-0.8-21.5-17.4-20.6-24.5 0.6-4.2 3.6-13 6.6-20l-25.7-36.3c-3.1 0.3-33.3 4.3-45.2-9.4-12-13.8-5.3-37.1 0.9-53.6-3.6-5.3-15-21.8-15.7-22.1-1.8-0.9-8.7 5.3-12.6-3-3.7-7.5 8.8-20.5 8.8-20.5 7.8-13 22 10.1 28.7 21.2 7.2-19.7 12.4-43.5-9.2-54-1.3-0.7-4.3-1.9-4.8-2.1-6.7-0.1-11.3-0.1-17-4l-6.1-3.9c-2.9-2.5-19-9.1-13.8-15.1 7.3-8.4 27.2-4.2 35.3-1.5 42.4 14.2 51.1 43.4 39.4 80.9-2.5 8.1-5.8 16-8.9 23.9l28.1 42.8c2.8 0 6.4 0 8.5 0.1 4 0.2 9.7 1.1 9.7 1.1 29.6 5.5 28.2 26.9 20.2 48-0.5 1.3-1.9 2.9-2.9 5.4zm-208.5 45c-1.6 0.2-6.1 0.7-10.9 1.9-38.7 9.2-58.3 36.9-58.3 78.1 0 45.4 39.9 75.2 76 75.2 35.1 0 76.4-23.5 76.4-77.1 0-42.5-27-62.3-35.3-66.8-7.7-4.2-16.4-9-25.5-7.8-5.7 0.8-22.9 1.2-22.2 0.7 1.8-1.3 0.7-10.8-1.3-12.8l-3-4.3c14.9-4.6 34.3-3.1 48.4 3.6 29.8 14.3 55 45.5 55 86.5 0 49.7-37.8 93.3-91.6 93.3-53.8 0-92.5-44.1-92.5-91 0-43.1 24.1-80 71.9-89.2l8.6-0.4c2.1 2.1 2.8 5 4.6 7.3zm8 12.6l61.5 103.7h-123.4z"/>
		<path id="Path 7" fill-rule="evenodd" class="s5" d="m319.5 1374c-1.6-1.9-15.5-19.6-46.6-18.4 0 0-196.9 0.1-205.5 0-64.6-3.3-67.3-77-67.3-91.9l0.1-750.1h637.3c0 0 0.7 754.5 0.1 759.9-4.9 81-68.4 82.1-68.4 82.1h-201.2c-37.5 0-46.9 16.5-48.5 18.4zm-0.1-13.6c11.1-13.3 31.6-16.6 47.7-16.6h197.3c0 0 3.6 0.1 8.8-0.9 36.1-6.7 50.6-39.6 52.7-74.2 0.5-5.1-0.1-695.3-0.1-742.6h-613.8l-0.1 733.2c0 39.1 11.5 82 60.4 84.5 8.5 0.1 111 0.1 176.4 0h25.1c17.1-0.6 34.3 4.3 45.6 16.6zm286.7-119.4l-0.1 17.2c0 46.9-22 65.9-53.9 65.9h-184.2c-16.5 0-26.1 1.6-40.4 9.5v-298.8q-4.1 0.3-8.4 0.3-4.4 0-8.6-0.4v298.8c0 0-5.5-3-8.4-4.1-10.7-4.3-22-5.3-33.4-5.3h-165.3q-3.3 0-6.6 0h-11.1c-31.9 0-54-19-54-65.9v-315.5h191.1q-0.1-1.5-0.1-3 0-7.3 0.8-14h-191.8v-379.8h278.8v296.3q8.4-2.3 17-2.2v-294.1h278.6v379.8h-191.8q0.6 5.7 0.6 11.8 0 2.6-0.1 5.2h191.3c0 0 0 298.3 0 298.3zm-295.6-392.5l1.8 1.9 0.5 0.5 0.5 0.5c1.3 1.4 2.7 2.8 3.3 4.4q0.4 0.6 0.7 1.1c0 0-0.3 1.8-0.7 2.8q-0.4 0.9-1 1.7-0.4 0.5-0.9 1c5.7 1.3 14.3-1.1 18.7-1.7 9.4-1.3 19.7 4.8 27.6 9.2 8.4 4.5 36.5 25.6 36.5 68.4 0 54.1-43.8 79.7-79.3 79.7-36.4 0-78.4-32-78.4-77.8 0-38.8 17.8-59.6 35.9-70.5 15.2-9.2 30.3-11.2 34.6-11.6l0.1-0.5c-1.8-2.2-3.8-4.2-5.8-6.1l-4.9 0.9c-47.6 9.2-70.7 44.5-70.7 87.3 0 46.6 36.5 89.1 90.2 89.1 53.5 0 89.5-41.9 89.5-91.3 0-40.8-24.3-70.4-54.1-84.5-13.6-6.5-29.6-8.7-44.1-4.5zm-9.8 17.3q-5.5 1.4-10.5 3.4c-26.4 10.7-44.1 37.3-44.1 71.1 0 11.9 3.1 22.8 8.4 32.3l62.4-103.5c-2.6-0.1-5.1-0.7-7.6-2.1-1.1-0.6-2-1.4-2.8-2.2q-2.9 0.4-5.8 1zm4.8 66.1c-2.1 2.8-3.3 6.3-3.3 10 0 9.2 7.5 16.7 16.7 16.7 9.3 0 16.7-7.5 16.7-16.7 0-3.8-1.3-7.2-3.4-10-4.3-1-8.8-1.5-13.2-1.5-4.5 0-9.1 0.5-13.5 1.5zm-47.1 47.1c14.1 20.2 38 32.7 59.8 32.7 22.1 0 47.5-10.6 61.8-32.7zm125-6.1c4.9-9.7 7.8-21.2 7.8-34.6 0-32.4-17.3-57.7-45.6-69.2-9.5-3.9-17.3-0.9-24.8-0.1zm-22.3-25l-11.2 5.5c-8.4 7.4-20.5 12.1-31.5 12.1-10.6 0-22.1-4.2-29.8-11.6l-12-6-15 24.8h114.4zm-75-15.6c10.1-5.2 21.4-8.3 32.8-8.3 11.3 0 22.6 3 32.7 8.2l-32.7-54.3zm259.2 385.1h6.7c27.6 0 47.4-15.2 47.4-59.2v-16.3-0.8-291.7h-185.2c-4.8 42.7-35.2 78.1-80 84.7v289.6c11.6-5.1 22.4-6.3 35-6.3h174.7zm-204.8-383.2c0.9 2.4 1.4 5 1.4 7.7 0 4.3-1.2 8.4-3.3 11.8 2.9-1.5 5.5-3.4 7.8-5.5l10.9-5.3-0.5-0.4c-5-3.4-10.5-6.2-16.3-8.3zm-237.4 383.2h0.3 165.2c12.1 0 22.5 1.1 33.9 5.7l1.3 0.6v-289.7c-45.4-6.8-76.4-43.2-80.6-84.7h-184.8v290.8l-0.1 18.1c0 43.9 19.8 59.2 47.4 59.2zm310.1-398.4h186.1v-366.5h-265.2v288c7.7 0.9 15.5 3.2 23.1 6.8 27 12.8 49.8 37.7 56 71.7zm-109.5-74.6l0.1-291.9h-265.5v366.5h186c6.8-39.9 34.1-62.6 75.3-72.7q2-1 4.1-1.9zm-4.3 109.8c-2.2-3.6-3.5-7.8-3.5-12.3 0-2.7 0.4-5.3 1.3-7.7-5.7 2.1-11.1 4.9-16 8.2l-0.6 0.5 11.7 5.9c0 0 1 1 2 1.8q2.4 2 5.1 3.6zm-95.4 114.6l-78.8-49.2q1.7-2.7 2.9-5.6l79.3 49.5c3.5 2.2 0.2 7.5-3.4 5.3zm-45.1 16.1l-44.4-54q2.5-1.8 4.8-4l44.4 54.1c2.6 3.2-2.2 7.1-4.8 3.9zm-28.5-4.8l-22.4-45.5q2.8-1.3 5.4-3l22.6 45.8c1.9 3.7-3.7 6.5-5.6 2.7zm-6.1-59.1l40.1 32c3.2 2.6-0.7 7.5-3.9 4.9l-40.2-32.1q2.2-2.2 4-4.8zm-22.2-35.4l19.7 2-15.9 14.1 5.1 20-18.4-9.9-17.7 9.9 3.6-19.8-14.8-14.7 19.4-1.6 9.5-18.2zm-4 5.8l-5.5-10.5-5.5 10.6-9.3 0.8 7.5 7.4-1.8 10 9.1-5.1 8.8 4.8-2.5-9.9 8.1-7.1zm146 104.7c22.7 20.4 24.5 55.4 4.1 78.1-5.7 6.4-12.6 11.1-20 14.1h34.6v86.2c0 0-4.7-1.2-6-1.7-14.5-5.1-9.6-10.6-17.3-14.3-4-2-10-3.9-10-9.4v-31.9h-134.4c-6.8 0-7.7-7.5-11.6-9.8-7.4-4.5-11.6-10.8-7.4-18.3l15.3-67.3c1-4.1 2.6-10.6 10.4-11.3 7-0.7 10 5.2 11 10.6l13.1 67.3h60.1c-5.7-2.4-11.1-5.7-16-10.1-22.7-20.4-24.5-55.4-4-78.1 20.4-22.7 55.4-24.6 78.1-4.1zm-50.2 51l22.8-25.2q-7.4-6.6-14.1-14c-3.5 2.1-6.8 4.5-9.7 6.9-6.3 5.2-11.7 12-15.6 19.6q8.6 5.9 16.6 12.7zm27.1-29.8l15.7-17.3c-9.4-2.4-19.4 0.2-28.4 4.6q6.1 6.6 12.7 12.7zm21.3-14.2l-16.6 18.3q7.1 6.2 14.8 11.6c4.1-9.8 6.1-20.7 1.9-29.2l0.4-0.2zm-20.9 22.9l-22.9 25.2q7.9 7.1 14.9 15c5.7-3.7 10.9-8.4 15.4-13.8 2.9-3.6 6.2-8.4 9-13.8q-8.5-5.9-16.4-12.6zm-27.1 29.9l-17.4 19.1q1.2 0.1 3 0.3c9.9 0.5 19.3-1.6 27.8-5.9-4.2-4.7-8.7-9.2-13.4-13.5zm-29.5 6.3c-0.3-9 1.3-17.8 4.5-25.8q-5.3-3.5-10.8-6.6c-1.7 11.1 0.5 22.6 6.3 32.4zm7.1-31.4c4-7.8 9.7-14.9 17-20.9 2.9-2.3 6.1-4.7 9.5-6.8q-4.8-5.7-9.2-11.7c-6.9 2.7-13.3 7-18.6 12.9-5.2 5.7-8.7 12.3-10.7 19.2 1.7 0.9 5.8 3.2 11.2 6.7zm32.1-30.9c7.5-4 15.7-6.8 24-7-10.2-4.8-21.7-5.9-32.4-3.4 1.4 1.9 3.4 4.4 5.9 7.4q1.2 1.5 2.5 3zm46.7 15c0.1 5.8-1 13.2-4.8 21.9q4.9 3.1 9.9 5.9c1.1-9.5-0.7-19.2-5.1-27.8zm-7.5 27.4c-2.4 4.5-5.5 9.2-9.6 14.1-5.2 6.3-10.6 11.1-16 14.7q4.6 5.5 8.7 11.3c6.3-2.7 12.3-6.8 17.2-12.3 5.6-6.2 9.3-13.4 11.1-20.9-1.8-1-5.8-3.3-10.9-6.6zm-31.2 32.1c-9.8 5.2-19.1 6.8-26 7.2 10.7 5.1 22.8 6.1 34.1 3-1.4-1.9-3.7-4.9-6.8-8.6zm-40.2-3l0.3-0.1 17.5-19.5q-7.1-6.2-14.9-11.7c-3.8 9.9-5.1 20.8-2.7 31l-0.2 0.2zm-84-5.6l14.3-35.1 12.6 33.5-8.2-41.9c-0.8-4.7-2.5-5.7-4.2-5.5-3 0.3-3.8 2-4.8 6.5zm31.6 22.7l-1.7-8.1-6.9-8.6-9-23.9-10.5 25.9-6.7 6.4-2 8.4zm-38.8 6.2c0.1 4.7 6.6 6.9 9.3 10.4 0.8 1 3.8 5.9 5.1 5.9h140.6l0.1 38.3c1.6 2.5 11 3.7 12.8 9.5 1.1 3.5 4.9 5.8 8 7.3v-71.5zm52.5-72.1l-32.5-85.7q3.1-0.7 6-1.9l32.4 85.4c1.5 3.9-4.4 6.1-5.9 2.2zm185.1-189.5c4.5 0 8.2 3.7 8.2 8.2 0 4.6-3.7 8.2-8.2 8.2-4.6 0-8.3-3.6-8.3-8.2 0-4.5 3.7-8.2 8.3-8.2zm4.5-85.9c5.6-0.1 5.7 6.4 0.1 6.5-5.6 0.1-5.7-6.4-0.1-6.5zm37 318.1l31.4-19.1v-74.6h13.5v-11.8c0 0 5.2 1.9 7 2.1 12.5 1.4 21.6-10.2 33.2-13.1-1.5-3.1-2.3-6.5-2.3-10.2 0-12 5.8-19.6 14.2-26.9 2.7-2 4.4-2.6 4.4-2.6 0.1-0.1 0.2-0.1 0.2-0.1q-0.1-0.1-0.1-0.2c-1.8-2.3-3.8-4.4-5-7-0.3-0.7-1.6-5.4-1.6-5.4 0 0 5.6 2.1 7.7 3 13.9 6.3 27 16.7 18.3 32.9 5.3 3.4 7.3 10.1 5.7 16.3 11.9 2.6 20.6 14.7 33.7 13.3 1.8-0.2 7.1-2 7.1-2v11.7h12.9v73.4l14.9 1.5c5.8 0.6 6.7 2.9 7.3 8.3 0.4 3.5 0.4 6.8 0 10.4 5.5 0.9 16.7 2.8 18.8 3.2 7.7 1.6 4.7 25 2.2 28.8-1.1 1.7-61.8 79.3-61.8 79.3l-182.6-60.1 12.6-7.9v-11.9l-13.5-4 35.8-19.8v-4.4zm101.5-156.4q0 0 0 0 0 0 0 0zm-63.9 133.4l0.3-0.1-0.1 11.7c1.8-0.3 4.2-0.7 7-1.1v-75h-7.2c0 0 0 64.5 0 64.5zm129.7 10.3q3.3 0.6 6.6 1.2v-9.5-66.5h-6.6c0 0 0 74.8 0 74.8zm22.4-0.4l-9.5-1v9.9zm-158.4 1.3l-14.7 8.9 131.2 28.8 31.8-29.6c-4-0.7-29.7-5.2-41.8-6-11.5-0.8-27.8 0.3-31.2 0.6l-0.6 0.2-0.3-0.1-0.6-0.1c-3.7-0.3-19.4-1.2-30.5-0.6-12.8 0.7-43.3 6.1-43.3 6.1 0 0 0-8.2 0-8.2zm-30.3 33.5l-6.9 3.8 1 0.3 164.5 46.2 54.8-63.8c-4.1-0.7-9.4-1.6-13.4-2.3-3.4 6.9-25.4 27.8-26.6 29-11.9 12.2-24.9 25.6-24.9 25.6l-133.3-35zm-3.2 11.4v17.6l159.7 52.6v-25.4zm165.9 65.1c15-19 53.6-68.5 54.4-69.8 1.9-2.8 2.2-11.3 1.4-16.6l-55.8 64.9zm32.1-96.4c0.3-2.4 0.7-5.6 0.6-7 0-1.8-0.1-3.6-0.3-5.3l-44.5 41.3v18.5c12.3-12.7 41.9-43 42.9-44.2 0.8-1 1.2-3.1 1.3-3.3zm-93.4-116.5c1.4 0.6 2.6 1.1 3.5 1.6 3.6-1.8 7.5-3.2 11.5-3.8q1.3-0.2 2.6-0.3c0.9-2 1.1-4.4 0.2-7.1-3.1 6.2-11.8 2-7.3-5.7 2.7-4.6 5-7.2 4.5-13.1-0.5-5.8-5.4-9.9-10.1-12.4 0 0 1.9 4.2 2.3 6.9 2.3 15.4-15.4 12.1-11.9 3.4-3.8 3.6-8.8 8.5-8.8 18.5 0 3.6 1 6.9 2.8 9.6h1.1c3.8 0.4 7.1 1.4 9.6 2.4zm0.3 97.9v-90.8c-0.8-0.5-1.8-1-2.6-1.3-2.7-1-6.3-2.1-10.2-2.1-12.4 0-22.1 15.6-38.9 13.7l-0.1 80.1c7.7-2.8 16.1-3.7 24.2-3.7 8.7 0 18.9 1.2 27.6 4.1zm6.3-90.8v91c8.1-2.4 16.7-3.8 25-3.8 9.1 0 18.2 1.6 26.9 4v-80.9c-17.7 1.8-26.4-13.7-38.8-13.7-4.7 0-9 1.3-13.1 3.4zm36.3 139.3l-125.2-27.4v15.8l125.2 32.8zm-50.3-116.6c-14.1-3.3-21.9 6.8-36.5 7.5-4.2 0.3-4.5-6-0.4-6.2 15.2-0.8 20.8-11.5 38.3-7.4 4 0.9 2.6 7-1.4 6.1zm0 23.3c-10.7-2.8-15.6 1.9-24.8 5-3.3 1.1-7.1 2-11.7 2.2-4.1 0.3-4.5-6-0.3-6.2 14.9-0.8 22.1-11.4 38.4-7.1 4.1 1 2.5 7.1-1.6 6.1zm-0.2 22.9c-13.2-3.6-22.4 7-36.3 7.3-4.1 0.1-4.3-6.1-0.1-6.2 14.7-0.3 21-11.8 38.1-7.1 4 1.1 2.3 7.2-1.7 6zm20.8-6c17.1-4.7 23.4 6.8 38.1 7.1 4.1 0.1 4 6.3-0.2 6.2-13.9-0.3-23-10.9-36.3-7.3-4 1.2-5.7-4.9-1.6-6zm0.1-46.3c17.5-4.1 23 6.6 38.2 7.4 4.2 0.2 3.9 6.5-0.3 6.2-14.6-0.7-22.5-10.8-36.5-7.5-4.1 0.9-5.5-5.2-1.4-6.1zm-0.3 23.3c16.4-4.3 23.6 6.3 38.5 7.1 4.1 0.2 3.8 6.5-0.4 6.2-14.7-0.8-23.3-10.7-36.5-7.2-4 1-5.6-5.1-1.6-6.1zm36.5-263.7c-1.9 0.4-3.9 0.7-5.2 0.9-3.8 0.5-9.6 0.8-9.6 0.8-25-1-24.3-19.8-23.3-27 0.6-4.3 3.9-12.5 7-19.5l-23.4-33.2c-3.9 0.2-9 0.3-14.1 0.1-10.1-0.3-24.3-1.9-34.3-12.9-12.4-13.9-4.2-36.2 2.2-52.8-3.7-5.5-8.9-13.3-11.6-16.9-2.3-3-3.3-3.9-3.8-4.1-1.5-0.7-9 4.1-13.1-4.5-4-8.4 6.2-17.6 10.1-23.8 8.2-13.1 22.6 7.4 29.8 19.1 6.4-19.3 8.9-39.7-14.9-48.6-17.9-0.5-16.7-5.4-29.5-12.1-5.3-2.9-8.4-5.7-9.6-8.4-0.7-0.2-1.4-0.5-1.8-0.6-5.1-1.7-8.5-3.7-12.6-7.1-1.1-1-1-1.9-0.4-2.8 0.6-1 1.9-1.9 3.3-0.9 5.5 3.9 6.5 4.5 12.9 4.5 5.5-5.4 21.4-7.4 39.7-1.3 42.8 14.4 52.1 43.6 39.6 81.6-2.6 7.9-5.9 15.6-9.1 23.3l27.9 42.3c3.2 0.1 6.5 0.1 8.3 0.2 4.1 0.3 9.9 1.2 9.9 1.2 30.2 5.8 29.9 28.4 21.4 49.9-0.5 1.2-1.5 3.2-2.6 5.6l17.3 26.3c1.7-0.1 3.3-0.1 4.5-0.1 20.1 0.5 27.6 10.4 23.5 30.1-0.6 2.4-1.5 5.6-2.3 9l23.7 35.6c4.4 5.7-3.6 18.7-14.8 10.7l-2.2-3.1c-7.4 3.1-17.9-9.5-20.8-14.8-4.1-7.8-4.8-14.4-4.5-22.2zm-5.9-19.6l1.3 1.8 23 32.7 0.3-1.7c0.3-1.9 0.6-3.6 0.7-4.3l0.3-1.5c0.1-0.6 0.1-1 0.1-1.3l0.1-0.9-29.7-45.3-0.2 0.3c-1.2 3.1-2.3 6.4-2.9 9.3l-0.2 0.7zm-22.3-31.7l1.2-2.7c1.2-2.7 2.3-5.5 2.9-8.2l-21-32-6.5-9.7-22.9-34.9-1.4 3.8-1 2.5-2.7 7.7-0.1 0.3 14 19.9 6.5 9.2zm18.6 37.9c-6.9-0.9-10.7-6.9-10-13.7 1.7-15.4 12-28.1 14-43.5 1.2-9.8-1.3-21.9-21.2-25.7-4.3-0.7-8.5-1.1-12.9-1.2l9.1 13.8c17.3 4.2 14.9 19.3 9.4 32.1-6.6 14-24.3 45.7 6.3 47.1 3.7-0.2 7.3-0.5 10.9-1.1zm-59.2-84.9c-15.1-1.1-20.9-14.7-16.7-28.5l3.5-10c1.6-4.6 3.4-9.2 5.4-13.8l0.7-1.9c6.3-15.1 12.8-30.5 12.3-46.9-0.5-18.1-10.6-35.6-40.6-45.7-5.3-1.8-27.7-6.5-33.2-0.6 1.3 2.8 14.3 10.8 17.8 13.2 4.8 3.4 10.6 3.8 16.4 3.9 0 0 2 0.6 4.4 1.8 34.6 16.8 16.1 51.8 6.9 77.7 0 0-7.3 19.8-9 24.8-9 27.2 7 39.3 32.5 40.2 3.9 0.2 7 0.2 9.4 0.1l-7.7-11.4zm-44.7-71.9c4.6 2.2 12.6 15.2 15.4 19.4l5.8-15.4c-3.2-5-13.3-22.5-20-24.5-0.4 0.1-0.9 0.4-1 0.4-0.6 0.7-1 1.6-1.6 2.4-1.7 2.4-10.6 12.2-8.7 16.2 1.8 3.8 5.5-0.6 10.1 1.5zm139.9 173.9v0.5c-0.1 5-1.5 10.7-2.2 14.9-0.1 1.4-0.3 2.9-0.4 4.4-0.4 7.2 0.1 13.5 3.8 20.3 4 7.5 8 10.2 10.5 11.2l-1-1.9c-3.7-6.1-7.3-11.8-8.7-18.3-0.6-2.2-0.7-4.2-0.5-6.3q0-0.9 0.1-1.7c0.1-1.3 0.4-2.6 0.5-3.7 0.4-2.1 2.7-10.2 3-11.4q0.4-1.7 0.8-3.6c3.4-16-1.6-22.1-17.8-22.5l4.4 6.6c5.9 1.2 7.5 5.9 7.5 11.5zm7.9 23.3c-0.4 3.6-0.3 6.9 1 9.3q4.1 7.9 8.3 15.7l5.7 8.3c0 0 2 1.4 3.8 0.6 1.9-0.8 1.6-3.4 1.6-3.4zm-152.2-273.8c2.7-0.1 8.5 1.7 7.4 5.4-1.3 4.7-12.1 1.6-10.8-3.1 0.3-1 1.3-2.2 3.4-2.3zm-190.9 163.8l32.9-96.3v-11.2h-59.9c1.1 12.2 2.2 24.1 2.9 34.6 2.9 42.8 1.5 127.7 1.1 145.2h22.6c3.8 0 4.9 3.5 1.8 5.7l-24.8 17.1c0.1 6.5 0.6 30.1 1.9 43.6 3.8 2 6.2 3.2 6.1 8.5 0 7-6.4 9.5-12.1 9h-13.6-8.9c0 0-0.7 0-1.7-0.2-10.3-1.6-13.3-14.3-3.2-17.2 0.9-13.1 1-37.2 1-43.7l-24.4-17.2c-3.1-2.1-2-5.6 1.8-5.6h21.4c-0.4-17.9-2.1-106.2 0.6-145.1 0.8-10.4 1.9-22.6 3.1-35h-59.7v11.5l32.8 96.3h7.3c0 0-2.1 5.9-3.6 8.5-8.7 14.6-24.3 21.6-41.2 21.6-20.7 0-34.3-12.8-42-30.1h7.5l32.9-96.3v-11.5h-18.9c-5.7 0-1.7-12.4-1.3-14.5 2.1-10.2 12.7 1.5 15.2 3.4 4.8 0.7 21-1.6 25.2-2.2 13.6-1.8 28.6-4 36.3-4.5 1.4-0.1 9.3-0.8 11.6-2.8 3.4-32.4 7-61.6 7-61.6 0.6-4.3 5.7-4.3 6.3 0 0 0 3.5 29.2 6.9 62 2.4 1.9 10.2 2.6 11.5 2.6 18.1 1.3 36 5.2 54.1 6.6 2.3 0.2 5.1 0.5 7.4 0.2 2.9-2.2 6.6-6.9 10.2-7.3 6.3-0.7 6.2 10.8 6.8 14.8 0.3 2-1.1 3.6-3.1 3.6h-18.7v11.1l32.9 96.4h7.6c0 0-2.7 6.1-4.3 8.6-8.3 13-21.7 21.5-37.7 21.5-21.9 0-37.7-10.4-44.8-30.1 0 0 7.2 0 7.2 0zm-42.3 72.3l0.7-229.6c0 0-0.3 2.4-0.7 6.3-0.4 3.9-2.5 40.5-2.6 40.5-1.3 13.6-2.5 26.9-3.3 38.2-2.7 38.7-1.1 127-0.7 144.6zm-6.8 18.5h20.8l17.9-12.3h-56.2zm24.5 53.3h-27c-0.9 0.4-2 0.7-3 1.3-1 3.2 2.1 4.4 4.7 4.6h22.5 0.3c0 0 0.4 0 1 0 3.7-0.1 6.4-3.5 3.4-5-0.7-0.3-1.3-0.6-1.9-0.9zm-24-6.3h20.6c-1-12.6-1.5-32.7-1.7-40.7h-18c0 8.2-0.2 28.4-0.9 40.7zm-58.7-251.9h56.4l0.8-7.1c-2.5 0.8-5.9 1.5-10.4 1.8-14.1 1-32.7 3.6-46.8 5.3zm-24.6-4.8c-0.3 1.7-0.6 3.4-0.8 4.8h8.2c-1.4-1-4.6-2.5-7.4-4.8zm98.3 8.8c-0.9-10.1-2.3-38.8-2.5-42.1-0.2-3.2-0.6-5.3-0.6-5.3l0.6 229.8h6.8c0.3-17.2 1.8-102.1-1.1-144.8-0.8-11.3-1.9-24.4-3.2-37.6zm62.3-3.7c-14.1-1.7-32.7-4.3-46.8-5.3-4.5-0.3-7.8-1-10.3-1.8l0.7 7.1zm24.6-4.8c-2.8 2.3-6 3.8-7.3 4.8h8.2c-0.3-1.4-0.6-3.1-0.9-4.8zm-134 124.9h-66.8c7.2 10.6 18.3 17.5 31.7 17.5 14.3 0 27.5-5.4 35.1-17.5zm-30.5-6.3h26.3l-26.3-80zm-32.5 0h26.3v-80.1zm209 0l-26.2-80.2v80.2zm-63 6.2c7.7 12.1 20.9 17.6 35.2 17.6 12.5 0 25-7.1 31.9-17.6zm30.4-86.4l-26.3 80.2h26.3zm78.4-272.3q1.5 0 3 0 2.8 0 5.6-0.1v108.6h-8.6zm-255.9-216.5l149.1 50.5q-1.6 3.9-2.9 8.1l-149-50.4c-5.4-1.8-2.6-10 2.8-8.2zm192.5 194.8l-91.3 122.2c-3.4 4.6-10.3-0.5-6.9-5.1l91.3-122.3q3.3 2.7 6.9 5.2zm-99-106.1h47.2q-0.2 3.3-0.1 6.6v2h-47.1c-5.7 0-5.7-8.6 0-8.6zm131.4 122.1l-14.5 43.6c-1.8 5.5-10 2.7-8.2-2.7l14.6-43.8q4 1.6 8.1 2.9zm-129.1-337.1l94.3 123.8q-3.4 2.6-6.7 5.4l-94.5-124c-3.5-4.5 3.4-9.7 6.9-5.2zm32.8 116.3l39.1 28.9q-2.7 3.3-5.2 6.9l-39-28.8c-4.6-3.4 0.5-10.4 5.1-7zm85.3-54.9l13.8 43.9q-4.2 1.2-8.2 2.7l-13.8-44.1c-1.7-5.4 6.5-8 8.2-2.5zm-215.8 244l147-50.9q1.1 4.2 2.6 8.2l-146.8 50.8c-5.4 1.9-8.2-6.2-2.8-8.1zm123.1 12.3l39.3-29.5q2.4 3.6 5 7l-39.1 29.4c-4.6 3.4-9.8-3.4-5.2-6.9zm134.9-368.9c0-5.8 8.6-5.8 8.6 0v151.8q-2.9-0.2-5.8-0.2-1.4 0-2.8 0.1zm264.6 177.5c5.4-1.8 8.2 6.3 2.7 8.2l-149 50.3q-1.3-4.1-2.9-8.1zm-192.5 194.8q3.6-2.5 6.9-5.2l91.3 122.3c3.4 4.6-3.4 9.7-6.9 5.1zm99-106c5.7 0 5.7 8.6 0 8.6h-47.1l0.1-2q0-3.3-0.2-6.6zm-131.4 122.1q4.1-1.3 8.1-2.9l14.6 43.8c1.8 5.4-6.3 8.1-8.2 2.7zm129.2-337.1c3.5-4.5 10.3 0.7 6.9 5.2l-94.5 123.9q-3.3-2.7-6.8-5.3zm-32.8 116.3c4.6-3.4 9.7 3.6 5.1 7l-39 28.8q-2.5-3.6-5.2-6.9zm-85.2-55c1.7-5.4 9.9-2.9 8.2 2.6l-13.9 44q-4-1.4-8.1-2.7zm215.7 244.1c5.5 1.9 2.6 10-2.8 8.1l-146.7-50.8q1.4-4 2.6-8.2zm-123.1 12.3c4.6 3.4-0.6 10.3-5.2 6.9l-39.1-29.4q2.6-3.4 5-7zm-72.1-3.4l-67-38-67.1 38 15.4-75.5-56.8-52.1 76.6-8.6 31.9-70.2 31.9 70.2 76.6 8.6-56.9 52.1zm-12.2-17.1l-12.5-61.1 46-42.2-62-7-25.8-56.8-25.9 56.8-61.9 7 46 42.2-12.5 61.1 54.3-30.8zm-10.3-13.9l-44-24.9-44 24.9 10.1-49.6-37.3-34.2 50.2-5.6 21-46.1 21 46.1 50.2 5.6-37.3 34.2zm-9.7-13.7l-7.9-38.6 29.1-26.7-39.2-4.4-16.3-35.9-16.4 35.9-39.2 4.4 29.1 26.7-7.8 38.6 34.3-19.5z"/>
	</g>
</svg>