<svg version="1.2" xmlns="http://www.w3.org/2000/svg" viewBox="0 0 860 690" width="860" height="690">
	<title>fcfm-pdf</title>
	<defs>
		<clipPath clipPathUnits="userSpaceOnUse" id="cp1">
			<path d="m0 0h860v690h-860z"/>
		</clipPath>
	</defs>
	<style>
		.s0 { fill: none;stroke: #676c72;stroke-miterlimit:3.86299991607666;stroke-width: 3.9 } 
		.s1 { fill: none;stroke: #676c72;stroke-miterlimit:3.864000082015991;stroke-width: 2 } 
		.s2 { fill: none;stroke: #676c72;stroke-miterlimit:3.864000082015991;stroke-width: 1.3 } 
		.s3 { fill: none;stroke: #676c72;stroke-linecap: round;stroke-linejoin: round;stroke-width: 2 } 
		.s4 { fill: none;stroke: #676c72;stroke-linecap: round;stroke-linejoin: round;stroke-width: 1.3 } 
		.s5 { fill: none;stroke: #676c72;stroke-miterlimit:3.864000082015991;stroke-width: 1.4 } 
		.s6 { fill: none;stroke: #676c72;stroke-miterlimit:3.864000082015991;stroke-width: 3.8 } 
		.s7 { fill: none;stroke: #ffffff;stroke-miterlimit:3.864000082015991;stroke-width: 2 } 
		.s8 { fill: #676c72;stroke: #676c72;stroke-miterlimit:3.864000082015991;stroke-width: 1.3 } 
		.s9 { fill: none;stroke: #676c72;stroke-miterlimit:3.86299991607666;stroke-width: 3.5 } 
		.s10 { fill: none;stroke: #676c72;stroke-miterlimit:3.86299991607666;stroke-width: 1.8 } 
		.s11 { fill: #676c72 } 
		.s12 { fill: #e31018 } 
		.s13 { fill: none;stroke: #676c72;stroke-miterlimit:3.864000082015991;stroke-width: 3.9 } 
	</style>
	<g id="Page 1" clip-path="url(#cp1)">
		<path id="Path 1" class="s0" d="m201.2 162.9v249.7c0 4.7-3.8 8.6-8.6 8.6h-78.2c-5.2-0.1-9 8.6-9 8.6 0 0-3.8-8.7-9.3-8.6 0 0-78.1 0-78.1 0-4.7 0-8.6-3.9-8.6-8.6v-249.7z"/>
		<path id="Path 2" class="s1" d="m134.1 202.7l-7.6-12.2c-9.1 2.1-6.9-5.8-2-8.9 5.5-3.4 11.6-2.2 7.7 5.3 0 0 1.7 2.9 4.7 7.6 0 0-2 3.8-2.8 8.2zm33.7 40.7l20.8 33-1.5 1.5-7.3-5.7c0 0-0.4-4.9-1.6-5.9-3.9-3.3-1.6-5.2-3.1-8.3-1.5-3.1-10.4-5.6-12.5-10.3 0.1 0.3-3.4-5.4-3.4-5.4 7.9-1.4 8.6 1.1 8.6 1.1zm-24.3-38.9c-0.1-0.1 7.4 12.2 7.3 12-4.6-0.6-6.8-1.9-7.7-4.3-1.1-2.8-0.2-6.5 0.4-7.7zm-111 116.2l16.2 40.9m-14.9-39.8l15 29.1m-13.9-28.6l13.7 20.5m-12.9-20.9l12.6 14.9m-12.7-16.3l18.1 17.2m-18.3-18.2l24.9 18.7m-25.3-19.5l36.6 21.4m-16.8-86.7l-0.6 12.6h7.4l-0.6-12.6zm6.2-3.5l-3-67.9-3.1 67.9zm-15.4 0.1h24.8v3.4h-24.8zm20.2 16c0 5.1-3.5 8.7-7.8 8.7-4.3 0-7.9-3.6-7.9-8.7zm-19.2-46.9c0 6.5-5.4 11.8-12 11.8-6.6 0-12-5.3-12-11.8zm98.5-17.1c0 0 2.6 3.6 5.4 2 5.2-3.1-1.2-20.6-11.9-11.7-2.3 2-5.5 11-4.9 16.9 0.6 5.8 3.2 13.2 9.8 14.7 4 0.9 11.9-1.3 15.2 4.1 2.4-0.9 5.1-10.5-1.7-10.8-6.8-0.4-12.5-1.5-13.5-4.3-2.4-6.8 1.6-10.9 1.6-10.9zm6 27.4c-2.6 1.3-4.6 4.3-3.6 7.7 0.9 3.4 5 5.5 10.8 5.2q0.5-0.1 1-0.1c5.1-0.4 7.4-1 9.2 1.9 1.8-2.2 1.3-7-1.3-9.2-4-3.4-14.4 0.9-16.1-5.5zm11.5 18.4c-0.6 2.8-2.5 6.5-0.9 9.9 2.2 4.6 6.2 2.2 7.4 4.9 1.2 2.8 0 6.9 2.8 7.7 5.2 1.6 3.3 6.8 6.1 6.5 2.4-0.2 2.5-8.4 0-10.8-3.7-3.4-1.2-5.8-3.1-8.6-1.8-2.8-8.6-4-12.3-9.6z"/>
		<path id="Path 3" class="s2" d="m108.8 265.1c0-0.2 0.1-0.3 0.3-0.3 0.2 0 0.4 0.1 0.4 0.3 0 0.2-0.2 0.3-0.4 0.3-0.2 0-0.3-0.1-0.3-0.3zm38.9-69.2c0.5-0.1 1.1 0.2 1.3 0.9 0.2 0.6 0 1.3-0.5 1.4-0.5 0.2-1.1-0.1-1.3-0.8-0.2-0.6 0-1.3 0.5-1.5z"/>
		<path id="Path 4" class="s1" d="m52.6 361.6c0-9.8 7.9-17.8 17.7-17.8 9.8 0 17.7 8 17.7 17.8 0 9.8-7.9 17.8-17.7 17.8-9.8 0-17.7-8-17.7-17.8zm36 43.7h-8.6v-16.6h-52.9v-8.5h61.5zm-53.9-41.8c0-1.9 1.6-3.6 3.6-3.6 2 0 3.6 1.7 3.6 3.6 0 2.1-1.6 3.7-3.6 3.7-2 0-3.6-1.6-3.6-3.7zm0.2-1l-6.2 17.6 9.5-12.9m3.6-4.7l6.2 17.6-9.6-12.9m16.7-14c-0.9 4.9 8.2 4.8 7.4 7.5-1.8 6.3 1.9 6.1 2.5 9.4 0 0-0.6 7.8 1.5 8.5 1.2-1.7 0.3-5.1 1.9-6.8 1.6-1.9 3.8-2.9 3.8-6.2 0-2.4-3.3-3.2-4.3-3.9-1.1-0.7-3.1-1.4-4.5-1.4 0 0-3.5-6.8-2.4-8 1.2-1.1 3.1 1.6 3.8 1.6 1.6 0 1.9-3.3 4.5-3.3 0-0.7-0.2-3.1-0.6-3.4-2.6 0-4.2 1.3-6.3-1.4 0 0-6.4 2.6-7.3 7.4zm20.7-8.7c-2-0.7-5-0.4-5-0.4 2.6 1.2 2.5 4.7 3.5 4.7 2.2 0 3.3-1.8 5.4-2.2 0 0-1.9-1.3-3.9-2.1zm12 13.6c0-4.4-5.9-9.9-5.9-9.9 0 0-2.9 5.3-1.6 10.9 1.4 0.2 5.4-0.3 5.4-0.3 1 0.5 0.6 2.1 0.6 3.1 0 2.5-0.7 8.8-0.7 8.8 0 0 2.2-8.2 2.2-12.6z"/>
		<path id="Path 5" class="s2" d="m31.9 311.1l-1.8 3.9-4.1 0.5 3 2.9-0.8 4.1 3.7-2 3.7 2.1-0.7-4.3 3-2.8-4.2-0.6z"/>
		<path id="Path 6" class="s0" d="m105.3 323.5v105.6"/>
		<path id="Path 7" class="s3" d="m120.6 374.9l-4.5 5.1c-0.7 0.7-0.3 5.5 0 6.9 3.6 1.4 54.4 17.4 54.4 17.4l20.7-22.5-3.3-1.4c-0.9-1.5 2.1-6.5 2.1-6.5l-10.1-3.9m-9.4 24.3c-0.8 0.7-0.6 9.1 0.1 10.1 0 0 20.6-22.6 20.6-22.6l-2.2-2c-0.1-2 0.4-5.7 0.4-5.7zm-1.9-13.9c-0.9 0.4-1.4 11.5-0.2 11.6 0 0 17-19.3 17-19.3l-1.7-0.9z"/>
		<path id="Path 8" class="s4" d="m126.8 365.8l-5.3 5.4c-0.8 0.4-0.2 5.5 0 6.9 1.9 0.5 46.9 13.9 46.9 13.9l16.9-19.5-5.4-1.9"/>
		<path id="Path 9" class="s1" d="m176 337.6v32.2c-4.4-1-21-3.1-22.7-0.5-1.4-2.6-14.7-1.4-22.7 0.3v-31c-1 4.5-4 6.1-4 6.1v27.4l23.6-1.7c2.6 1.7 5.6 0.6 6.6 0.1l22.6 0.8v-30.7c0 0-2.2-0.2-3.4-3zm0 32.2c-4.9 0-19.2-3.8-22.6-0.4 3.1-0.1 3.1 1.9 0 2-3.4-0.2-2.9-2.2 0-1.9-2.9-3.8-22.7 0.7-22.7 0.7l-0.1-31.6c5.5 0 11.2-2.7 15.1-2.7 3.8 0 7.9 1.7 7.9 1.7 0 0 6.1-2.5 10.4-2.5 5.1 0 7.7 4.2 11.7 2.7 0 2 0.3 32 0.3 32z"/>
		<path id="Path 10" class="s2" d="m153.5 337.6l-0.2 31.7"/>
		<path id="Path 11" class="s5" d="m130 380.7l-1.7 1.8c-0.8 0.9-0.8 8 0 8.3 0 0.2 3.7 1.1 2 0.4-0.3-2.3-0.2-7.3 0.4-8l1.9-1.8zm5.9 1.7l-1.6 1.7c-0.8 0.9-1.1 8.3-0.3 8.6-0.1 0.2 4 0.9 2.3 0.2-0.3-2.3-0.2-7.3 0.4-8l1.7-1.7zm14.4 4.2l-1.9 2.1c-0.8 0.9-1.2 7.8-0.4 8.2 0 0.1 4.1 1.2 2.4 0.5-0.3-2.3-0.2-7.2 0.4-7.9l2.1-2.2zm5.5 1.8l-2 2c-0.7 0.9-1.1 7.9-0.3 8.3 0 0.1 4 1.1 2.4 0.4-0.4-2.3-0.2-7.2 0.4-7.9l2.1-2.2zm-25.8-16.4l-1.2 1.3c-0.6 0.7-0.8 6.6-0.1 6.9-0.1 0.1 1.6 0.7 1.9 0.6 0.2 0-0.2-0.6-0.3-0.9-0.3-1.7-0.1-5.5 0.3-6l1.4-1.4z"/>
		<path id="Path 12" class="s1" d="m153.6 337.3c-6.1-0.1-7.8-5-7.8-5l2.4-0.1c0 0-3-1.8-2.3-3.6-0.1-0.1 2 0.2 2 0.2 0 0-0.9-2.5 0-4.1l1.9 0.8c0.5-3.2 3.9-4 3.9-4 0 0 3.2 0.4 4.1 4l1.9-0.8c0.8 1.6-0.1 4.1-0.1 4.1 0 0 2.2-0.3 2.1-0.2 0.7 1.8-2.3 3.6-2.3 3.6l2.4 0.1c0 0-2 4.9-8.2 5z"/>
		<path id="Path 13" class="s0" d="m9.3 293.6h66.2"/>
		<path id="Path 14" class="s6" d="m135.4 293.6h65.7"/>
		<path id="Path 15" class="s7" d="m105.4 269.1l21.2 37.2h-42.5z"/>
		<path id="Path 16" class="s1" d="m105.3 287.5c7.6 0 14.2 6.3 14.2 7.3 0 0.9-6.6 7.3-14.2 7.3-7.7 0-14.4-6.4-14.3-7.3-0.1-1 6.3-7.6 14.3-7.3zm-7.2 7.3c0-4 3.2-7.2 7.1-7.2 4 0 7.2 3.2 7.2 7.2 0 3.9-3.2 7.1-7.2 7.1-3.9 0-7.1-3.2-7.1-7.1z"/>
		<path id="Path 17" class="s8" d="m104.3 294.8c0-0.5 0.4-0.9 0.9-0.9 0.5 0 0.9 0.4 0.9 0.9 0 0.5-0.4 0.9-0.9 0.9-0.5 0-0.9-0.4-0.9-0.9z"/>
		<path id="Path 18" class="s1" d="m105.5 268.4c-14 0-25.4 11.4-25.4 25.4 0 14 11.3 25.4 25.2 25.4 14 0 25.3-11.4 25.3-25.4 0-12.6-9.1-23.1-21.1-25.1-4.5 0.3-4.7-1.3-4.9-2.1-0.4-2.3 2.6-3.6 4.7-3.6 3.7 0 3.4 2.1 5.6 2.6 11.7 4 20.2 15.1 20.2 28.3 0 16.5-13.3 29.9-29.8 29.9-16.4 0-29.7-13.4-29.7-29.9 0-16.5 12.3-29.3 28.9-28-0.2 1.1 1 2.5 1 2.5z"/>
		<path id="Path 19" class="s9" d="m105.3 57.8l-9.1 18.4-20.6 3 14.9 14.7-3.1 19.9 17.9-9.1 17.9 9.1-3.3-20.1 14.4-14.1-19.8-3.2z"/>
		<path id="Path 20" class="s10" d="m105.3 58.5v46.2m-29-25.1l43.6 14.1m-32.5 20.1l27.1-37.4m8.7 37.4l-27-37.6m38.1 3.4l-43.8 14.3"/>
		<path id="Path 21" class="s9" d="m90.2 94.1l-61.6 20.3m153.1-50.5l-47.4 15.6m-38.2-3.3l-38-52.6m100.2 139.4l-35.4-49.3m-8.3-37.4l37.8-52.9m-100.9 139.6l35.9-49.3m-11.3-34.2l-47.3-15.6m152.7 50.5l-61.3-20.6m-14.9-85.8v51.6"/>
		<path id="Path 22" class="s10" d="m89.4 101.1l-25.3 18.3m82.5-60.2l-24.9 18.1m-22.3 30.6l-9.7 30m31.5-97.7l-9.6 29.8m-0.2 37.9l9.6 29.8m-31.6-97.8l9.8 30.3m21.8 30.5l25.2 18.4m-82.6-60.3l25.1 18.3m36.2 12.2h31.7m-102.3 0h31.2"/>
		<path id="Path 23" class="s1" d="m157.3 226.5c1.4 2.1 4.2 6.9 4.2 6.9 0 0-6.7 0.5-9.1-1.8-0.5-0.8-4.5-7.3-4.5-7.3 0 0 8 0.2 9.4 2.2zm-122.8-34.7l-11.8 27.2 23.6 0.1zm35.2 27.3c0 6.5 5.4 11.7 12 11.7 6.6 0 12-5.2 12-11.7zm12-27.3l11.8 27.2h-23.7zm-27.2 72.5l7.1-3.3m-7.3-1.3l7.1-3.3"/>
		<path id="Path 24" class="s2" d="m57.8 191.3h-23.3v-2.8h23zm0.4-2.7h23.4v2.7h-23.2zm78.5 156.1c3.3-0.1 7.4-3.3 12-1.8m-12 5.3c3.2-0.1 7.4-3.2 12-1.6m-12 5.1c3.2-0.1 7.4-3 12-1.4m-12 5c3.2-0.1 7.4-2.9 12-1.3m-12.1 4.8c3.3-0.1 7.5-2.7 12.1-1.1m-12.1 4.6c3.2-0.1 7.5-2.5 12.1-1m21.7-17.7c-3.2-0.1-7.5-2.2-12.1-0.7m12.1 4.4c-3.2-0.1-7.5-2.3-12.1-0.7m12.1 4.5c-3.2-0.1-7.5-2.4-12.1-0.8m12.1 4.5c-3.2-0.1-7.5-2.4-12.1-0.8m12.1 4.5c-3.2-0.1-7.5-2.4-12.1-0.8m12.1 4.5c-3.2-0.1-7.5-2.4-12.1-0.9"/>
		<path id="Path 25" class="s1" d="m105.4 269.1l21.2 37.2h-42.5z"/>
		<path id="Path 26" class="s5" d="m134.5 373l-1.3 1.3c-0.6 0.7-0.7 6.7-0.1 6.9 0.3 0.2 1.7 0.9 1.9 0.8 0.3 0-0.2-0.8-0.3-1.1-0.2-1.7-0.1-5.5 0.4-6l1.4-1.4z"/>
		<path id="Path 27" class="s11" d="m103.2 104.7h3.9v157.8l-1.8 2.4-0.8 1-1.2-0.8z"/>
		<path id="Path 28" class="s5" d="m152.8 378.3l-1.3 1.3c-0.6 0.7-0.7 6.6-0.1 6.9 0 0.1 1.7 0.7 1.9 0.6 0.3 0-0.1-0.6-0.2-0.9-0.3-1.7-0.2-5.5 0.3-6l1.4-1.4zm4.5 1.1l-1.3 1.3c-0.6 0.7-0.7 6.7-0.1 6.9 0.3 0.2 1.7 0.9 2 0.8 0.2 0-0.2-0.8-0.3-1.1-0.3-1.7-0.2-5.5 0.3-6l1.4-1.4z"/>
		<path id="Path 29" class="s12" d="m544 239.3h23.6v44.5h-23.6v126.7c-5.2 44.7-34.3 78.2-81.5 76.3v-44.5c20.1 0.7 32.1-7 34.2-30.8l0.1-127.7h-22.2v-44.5h22.2v-30c1.1-47.2 30.1-81.9 82.3-75.9v44.2c-22.3-1.8-34.9 7.3-35.1 32.1z"/>
		<path id="Path 30" class="s13" d="m850.4 486.3v-353.7m-582 353.7v-353.8"/>
		<path id="Path 31" class="s11" d="m315.5 240c0-25.3 12.5-34.6 35-32.8v-44.1c-52.6-6.1-81.6 29.2-82.3 76.9v182.6h47.3v-141h33.2v-41.6zm116.3 182.6h36.9v-45.6h-32.9c-29.7 0-48.7-20.2-48.7-46.2 0-26 19-46.3 48.7-46.3h32.9v-45.2h-36.9c-56.2 0-91.9 40.2-91.9 91.5 0 51.2 35.7 91.8 91.9 91.8zm418.1-106c0-48-30.4-81.8-82-81.8-23.9 0-44.7 9.9-58.6 25.9-13.3-16-33.7-25.9-58.7-25.9-50.5 0-83 35.2-83 81.8v106.1h47.2v-107.1c0-20.7 14.7-34.9 35.8-34.9 31.1 0 34.3 24.5 34.3 34.9v107.1h47.3v-107.1c0-20.7 15-34.9 35.7-34.9 31.2 0 34.7 24.5 34.7 34.9v107.1h47.3zm-583.1 330.9v21q0 2.5 0.7 4.8 0.7 2.2 2.2 3.9 1.6 1.7 4 2.7 2.4 1 5.9 1 3.4 0 5.8-1 2.4-1 4-2.7 1.5-1.7 2.2-3.9 0.8-2.3 0.8-4.8v-21h-3.2v20.3q0 2.8-0.6 4.8-0.7 2-1.9 3.3-1.2 1.2-3 1.8-1.8 0.6-4.1 0.6-2.3 0-4.1-0.6-1.8-0.6-3-1.8-1.3-1.3-1.9-3.3-0.7-2-0.7-4.8v-20.3zm35.2 0v32.7h3.1v-27.6h0.1l19.2 27.6h3.5v-32.7h-3.1v27.7h-0.1l-19.2-27.7zm36.1 32.7h3.1v-32.7h-3.1zm9.7-32.7l12.2 32.7h3.6l12.2-32.7h-3.3l-10.6 29.3h-0.1l-10.7-29.3zm34.3 0v32.7h22.9v-2.6h-19.8v-12.9h18.3v-2.7h-18.3v-11.8h19.6v-2.7z"/>
		<path id="Path 32" fill-rule="evenodd" class="s11" d="m427.7 647.6q2 0 3.8 0.5 1.8 0.5 3.2 1.5 1.3 1 2.1 2.7 0.8 1.6 0.8 3.8 0.1 3.1-1.6 5.4-1.6 2.3-4.7 2.9v0.1q1.6 0.2 2.6 0.9 1.1 0.6 1.7 1.5 0.7 1 1 2.3 0.3 1.2 0.4 2.7 0.1 0.8 0.1 2 0 1.2 0.2 2.4 0.1 1.2 0.4 2.3 0.3 1.1 0.8 1.7h-3.4q-0.3-0.5-0.5-1.1-0.1-0.7-0.2-1.4-0.1-0.7-0.1-1.4-0.1-0.7-0.1-1.2-0.1-1.8-0.3-3.5-0.2-1.7-0.9-3-0.6-1.4-1.9-2.2-1.3-0.8-3.5-0.8h-11.9v14.6h-3.1v-32.7zm-0.2 15.5q1.4 0 2.7-0.4 1.3-0.5 2.2-1.3 1-0.8 1.6-2 0.6-1.2 0.6-2.7 0-3-1.8-4.7-1.7-1.8-5.3-1.8h-11.7v12.9zm21.5 10.6q0.8 1.7 2.2 2.7 1.5 1 3.5 1.5 2 0.4 4.2 0.4 1.3 0 2.8-0.4 1.6-0.3 2.8-1.1 1.4-0.8 2.2-2.1 0.9-1.3 0.9-3.1 0-1.3-0.6-2.3-0.6-1-1.6-1.7-1-0.7-2.2-1.1-1.2-0.5-2.3-0.8l-7.4-1.7q-1.4-0.4-2.8-1-1.3-0.5-2.3-1.4-1-0.9-1.7-2.3-0.6-1.3-0.6-3.2 0-1.2 0.5-2.8 0.4-1.6 1.7-3 1.3-1.5 3.5-2.4 2.2-1 5.6-1 2.5 0 4.7 0.6 2.2 0.7 3.9 1.9 1.6 1.3 2.6 3.2 1 1.9 1 4.4h-3.1q-0.1-1.8-0.9-3.2-0.7-1.4-2-2.3-1.2-1-2.8-1.5-1.6-0.5-3.3-0.5-1.6 0-3.1 0.4-1.5 0.3-2.7 1.1-1.1 0.7-1.8 2-0.7 1.2-0.7 3 0 1.2 0.4 2.1 0.4 0.8 1.1 1.4 0.7 0.6 1.6 0.9 0.9 0.4 1.9 0.6l8 2q1.8 0.5 3.3 1.1 1.6 0.7 2.7 1.7 1.2 1 1.9 2.4 0.7 1.4 0.7 3.4 0 0.6-0.2 1.5-0.1 0.9-0.5 1.9-0.4 1.1-1.3 2.1-0.8 1.1-2.2 1.9-1.4 0.9-3.4 1.4-2.1 0.5-5 0.5-2.9 0-5.4-0.6-2.5-0.7-4.2-2.1-1.8-1.4-2.8-3.5-0.9-2.2-0.7-5.2h3.1q-0.1 2.5 0.8 4.2zm30.3-26.1h3.1v32.7h-3.1zm24.7 0q7.5 0.2 11.3 4.2 3.8 4 3.8 12.1 0 8.2-3.8 12.2-3.8 4-11.3 4.2h-11.3v-32.7zm-1.6 30q3.5 0 6.1-0.7 2.5-0.8 4.2-2.4 1.7-1.7 2.4-4.3 0.8-2.6 0.8-6.3 0-3.6-0.8-6.2-0.7-2.7-2.4-4.3-1.7-1.7-4.2-2.4-2.6-0.8-6.1-0.8h-6.7v27.4zm38.2-30l12.9 32.7h-3.3l-4.1-10.2h-14.9l-4 10.2h-3.3l13.2-32.7zm4.5 19.9l-6.4-16.8-6.6 16.8zm26.2-19.9q7.5 0.2 11.3 4.2 3.8 4 3.8 12.1 0 8.2-3.8 12.2-3.8 4-11.3 4.2h-11.4v-32.7zm-1.6 30q3.6 0 6.1-0.7 2.6-0.8 4.3-2.4 1.6-1.7 2.4-4.3 0.8-2.6 0.8-6.3 0-3.6-0.8-6.2-0.8-2.7-2.4-4.3-1.7-1.7-4.3-2.4-2.5-0.8-6.1-0.8h-6.6v27.4zm64.1-30q7.6 0.2 11.3 4.2 3.9 4 3.9 12.1 0 8.2-3.9 12.2-3.7 4-11.3 4.2h-11.3v-32.7zm-1.6 30q3.6 0 6.1-0.7 2.6-0.8 4.2-2.4 1.7-1.7 2.5-4.3 0.7-2.6 0.7-6.3 0-3.6-0.7-6.2-0.8-2.7-2.5-4.3-1.6-1.7-4.2-2.4-2.5-0.8-6.1-0.8h-6.7v27.4zm47.8-30v2.6h-19.5v11.9h18.3v2.6h-18.3v12.9h19.8v2.7h-23v-32.7zm58.3 6.5q-0.9-1.5-2.3-2.5-1.3-1-3-1.5-1.6-0.6-3.4-0.6-3.2 0-5.6 1.3-2.3 1.2-3.9 3.3-1.4 2-2.2 4.6-0.7 2.5-0.7 5.2 0 2.7 0.7 5.3 0.8 2.6 2.2 4.6 1.6 2 3.9 3.3 2.4 1.2 5.6 1.2 2.3 0 4.2-0.8 1.8-0.8 3.2-2.3 1.3-1.4 2.1-3.3 0.9-1.9 1.1-4.1h3.1q-0.3 3.1-1.4 5.5-1.1 2.4-2.9 4.1-1.7 1.7-4.1 2.6-2.4 0.9-5.3 0.9-3.8 0-6.8-1.3-2.9-1.5-4.8-3.8-1.9-2.3-2.9-5.4-1-3.1-1-6.5 0-3.4 1-6.4 1-3.1 2.9-5.4 1.9-2.4 4.8-3.8 3-1.4 6.8-1.4 2.4 0 4.6 0.7 2.3 0.7 4.1 2 1.8 1.4 3 3.3 1.2 2 1.6 4.6h-3.2q-0.4-1.9-1.4-3.4zm16.3-6.5v14.2h19.5v-14.2h3.1v32.7h-3.1v-15.9h-19.5v15.9h-3.1v-32.7zm32.8 0h3.2v32.7h-3.2zm16.5 0v30h18.4v2.7h-21.5v-32.7zm47.6 0v2.6h-19.6v11.9h18.4v2.6h-18.4v12.9h19.9v2.7h-23v-32.7zm-563.7-48.1v2.6h-17.7v11.9h15.7v2.6h-15.7v15.6h-3.2v-32.7zm5.2-2.6l4.9-6.5h3.6l-6.1 6.5zm4.3 35.3h-3.2v-32.7h3.2zm11.4-6.6q0.8 1.7 2.2 2.7 1.5 1.1 3.5 1.5 2 0.4 4.2 0.4 1.3 0 2.8-0.3 1.5-0.4 2.8-1.2 1.4-0.8 2.2-2 0.9-1.3 0.9-3.1 0-1.4-0.6-2.4-0.6-1-1.6-1.7-1-0.7-2.2-1.1-1.2-0.5-2.4-0.7l-7.3-1.8q-1.4-0.4-2.8-0.9-1.3-0.6-2.3-1.5-1-0.9-1.7-2.2-0.6-1.4-0.6-3.3 0-1.2 0.5-2.8 0.4-1.6 1.7-3 1.3-1.4 3.5-2.4 2.2-1 5.6-1 2.5 0 4.7 0.6 2.2 0.7 3.9 2 1.6 1.2 2.6 3.2 1 1.8 1 4.4h-3.1q-0.1-1.9-0.9-3.3-0.7-1.4-2-2.3-1.2-1-2.8-1.4-1.6-0.5-3.3-0.5-1.6 0-3.1 0.3-1.5 0.3-2.7 1.1-1.1 0.8-1.8 2-0.7 1.2-0.7 3.1 0 1.1 0.4 2 0.4 0.8 1.1 1.4 0.7 0.6 1.6 1 0.9 0.3 1.9 0.6l8 1.9q1.8 0.5 3.3 1.2 1.6 0.6 2.7 1.6 1.2 1 1.9 2.4 0.6 1.4 0.6 3.4 0 0.6-0.1 1.5-0.1 0.9-0.5 2-0.5 1-1.3 2-0.8 1.1-2.2 2-1.4 0.8-3.5 1.3-2 0.5-4.9 0.5-2.9 0-5.4-0.6-2.5-0.7-4.2-2.1-1.8-1.3-2.8-3.5-0.9-2.1-0.7-5.2h3.1q-0.1 2.6 0.8 4.2zm29.2-26.1h3.2v32.7h-3.2zm35 6.5q-1-1.5-2.3-2.5-1.4-1-3-1.5-1.7-0.5-3.5-0.5-3.2 0-5.6 1.2-2.3 1.2-3.8 3.3-1.5 2-2.3 4.6-0.6 2.5-0.6 5.2 0 2.7 0.6 5.3 0.8 2.6 2.3 4.6 1.5 2 3.8 3.3 2.4 1.2 5.6 1.2 2.4 0 4.2-0.8 1.8-0.8 3.2-2.2 1.3-1.5 2.1-3.3 0.9-2 1.1-4.2h3.1q-0.3 3.1-1.4 5.5-1.1 2.4-2.9 4.1-1.7 1.7-4.1 2.6-2.4 0.9-5.3 0.9-3.8 0-6.8-1.3-2.9-1.5-4.8-3.8-1.9-2.3-2.9-5.4-1-3.1-1-6.5 0-3.3 1-6.4 1-3.1 2.9-5.4 1.9-2.4 4.8-3.8 3-1.4 6.8-1.4 2.4 0 4.6 0.7 2.3 0.7 4.1 2 1.8 1.4 3 3.3 1.2 2 1.6 4.6h-3.2q-0.4-1.9-1.3-3.4z"/>
		<path id="Path 33" fill-rule="evenodd" class="s11" d="m398.1 599.5l12.9 32.7h-3.3l-4-10.2h-15l-4 10.2h-3.3l13.3-32.7zm4.4 19.8l-6.3-16.7-6.6 16.7zm15.9 6.3q0.9 1.7 2.3 2.7 1.5 1 3.4 1.5 2 0.4 4.3 0.4 1.3 0 2.8-0.4 1.5-0.3 2.8-1.1 1.3-0.8 2.2-2.1 0.9-1.3 0.9-3 0-1.4-0.7-2.4-0.6-1-1.6-1.7-0.9-0.7-2.1-1.1-1.2-0.5-2.4-0.7l-7.3-1.8q-1.4-0.4-2.8-1-1.4-0.5-2.4-1.4-1-0.9-1.6-2.3-0.6-1.3-0.6-3.2 0-1.2 0.4-2.8 0.5-1.6 1.7-3 1.3-1.5 3.5-2.4 2.2-1 5.7-1 2.4 0 4.7 0.6 2.2 0.7 3.8 1.9 1.7 1.3 2.7 3.2 1 1.9 1 4.4h-3.2q-0.1-1.8-0.8-3.2-0.8-1.4-2-2.3-1.2-1-2.8-1.5-1.6-0.5-3.3-0.5-1.7 0-3.2 0.4-1.5 0.3-2.6 1.1-1.1 0.7-1.8 2-0.7 1.2-0.7 3 0 1.2 0.4 2 0.4 0.9 1.1 1.5 0.7 0.6 1.5 0.9 1 0.4 2 0.6l8 2q1.7 0.5 3.3 1.1 1.5 0.7 2.7 1.7 1.2 1 1.8 2.4 0.7 1.4 0.7 3.4 0 0.6-0.1 1.5-0.1 0.9-0.6 1.9-0.4 1.1-1.2 2.1-0.8 1.1-2.2 1.9-1.4 0.8-3.5 1.4-2.1 0.5-5 0.5-2.9 0-5.3-0.6-2.5-0.7-4.3-2.1-1.7-1.4-2.7-3.5-0.9-2.2-0.8-5.2h3.1q0 2.5 0.8 4.2zm47.7-26.1h3.6l10.9 16.5 10.7-16.5h3.8l-13 19.2v13.5h-3.1v-13.5zm60.9 0l11.4 28.7 11.3-28.7h4.7v32.7h-3.2v-28.3h-0.1l-11.2 28.3h-3l-11.2-28.3h-0.1v28.3h-3.2v-32.7zm49.3 0l12.9 32.7h-3.4l-4-10.2h-15l-3.9 10.2h-3.3l13.2-32.7zm4.5 19.9l-6.4-16.8-6.6 16.8zm33.1-19.9v2.6h-11.5v30.1h-3.1v-30.1h-11.4v-2.6zm28 0v2.6h-19.5v11.9h18.3v2.6h-18.3v12.9h19.8v2.7h-23v-32.7zm11.4 0l11.4 28.7 11.3-28.7h4.6v32.7h-3.1v-28.3h-0.1l-11.2 28.3h-3l-11.3-28.3v28.3h-3.2v-32.7zm44.6-2.6l4.9-6.5h3.6l-6.1 6.5zm4.6 2.6l12.9 32.7h-3.3l-4-10.2h-15l-4 10.2h-3.3l13.2-32.7zm4.5 19.9l-6.4-16.8-6.6 16.8zm36.3-19.9v2.6h-11.5v30.1h-3.1v-30.1h-11.5v-2.6zm5.6 0h3.2v32.7h-3.2zm35 6.5q-1-1.5-2.4-2.5-1.3-1-2.9-1.5-1.7-0.5-3.5-0.5-3.2 0-5.6 1.2-2.3 1.2-3.8 3.3-1.5 2-2.3 4.6-0.6 2.5-0.6 5.2 0 2.7 0.6 5.3 0.8 2.6 2.3 4.6 1.5 2 3.8 3.3 2.4 1.2 5.6 1.2 2.3 0 4.2-0.8 1.8-0.8 3.2-2.2 1.3-1.5 2.1-3.3 0.9-2 1.1-4.2h3.1q-0.3 3.1-1.4 5.5-1.1 2.4-2.9 4.1-1.7 1.7-4.1 2.6-2.4 0.9-5.3 0.9-3.8 0-6.8-1.3-2.9-1.5-4.8-3.8-1.9-2.3-2.9-5.4-1-3.1-1-6.5 0-3.3 1-6.4 1-3.1 2.9-5.4 1.9-2.4 4.8-3.8 3-1.4 6.8-1.4 2.4 0 4.6 0.7 2.3 0.7 4.1 2 1.8 1.4 3 3.3 1.2 2 1.6 4.6h-3.2q-0.4-1.9-1.3-3.4zm25.1-6.5l12.9 32.7h-3.4l-4-10.2h-14.9l-4 10.2h-3.3l13.2-32.7zm4.5 19.9l-6.4-16.8-6.6 16.8zm16 6.2q0.8 1.7 2.2 2.8 1.5 1 3.5 1.4 2 0.4 4.2 0.4 1.3 0 2.8-0.3 1.6-0.4 2.9-1.2 1.3-0.8 2.2-2 0.8-1.3 0.8-3.1 0-1.4-0.6-2.4-0.6-1-1.6-1.7-1-0.7-2.2-1.1-1.2-0.4-2.3-0.7l-7.4-1.8q-1.4-0.4-2.8-0.9-1.3-0.6-2.3-1.5-1-0.9-1.7-2.2-0.6-1.4-0.6-3.3 0-1.2 0.5-2.8 0.5-1.6 1.7-3 1.3-1.4 3.5-2.4 2.2-1 5.7-1 2.4 0 4.6 0.6 2.2 0.7 3.9 2 1.6 1.3 2.6 3.2 1 1.9 1 4.4h-3.1q-0.1-1.9-0.9-3.3-0.7-1.4-2-2.3-1.2-1-2.8-1.4-1.5-0.5-3.3-0.5-1.6 0-3.1 0.3-1.5 0.4-2.6 1.1-1.1 0.8-1.8 2-0.7 1.2-0.7 3.1 0 1.1 0.3 2 0.5 0.8 1.1 1.4 0.7 0.6 1.6 1 0.9 0.3 1.9 0.6l8.1 1.9q1.7 0.5 3.2 1.2 1.6 0.6 2.7 1.6 1.2 1 1.9 2.4 0.7 1.4 0.7 3.4 0 0.6-0.2 1.5-0.1 0.9-0.5 2-0.4 1-1.3 2-0.7 1.1-2.2 2-1.3 0.8-3.4 1.3-2.1 0.5-5 0.5-2.9 0-5.4-0.6-2.5-0.7-4.2-2.1-1.8-1.3-2.7-3.5-1-2.1-0.8-5.2h3.1q0 2.6 0.8 4.2zm-541.6-74.2v2.6h-17.7v11.9h15.7v2.6h-15.7v15.6h-3.1v-32.7z"/>
		<path id="Path 34" fill-rule="evenodd" class="s11" d="m305.6 551.4l12.9 32.7h-3.4l-4-10.2h-15l-3.9 10.2h-3.3l13.2-32.7zm4.4 19.8l-6.3-16.7-6.6 16.7zm37.3-13.3q-0.9-1.5-2.3-2.5-1.4-1-3-1.5-1.6-0.6-3.4-0.6-3.3 0-5.6 1.3-2.4 1.2-3.9 3.3-1.5 2-2.2 4.5-0.7 2.6-0.7 5.3 0 2.7 0.7 5.3 0.7 2.5 2.2 4.6 1.5 2 3.9 3.3 2.3 1.2 5.6 1.2 2.3 0 4.1-0.8 1.9-0.9 3.2-2.3 1.3-1.4 2.2-3.3 0.8-1.9 1-4.1h3.2q-0.4 3-1.5 5.5-1.1 2.4-2.8 4.1-1.8 1.7-4.2 2.6-2.3 0.9-5.2 0.9-3.9 0-6.8-1.4-2.9-1.4-4.9-3.7-1.9-2.4-2.9-5.4-0.9-3.1-0.9-6.5 0-3.4 0.9-6.5 1-3 2.9-5.4 2-2.3 4.9-3.7 2.9-1.4 6.8-1.4 2.3 0 4.5 0.7 2.3 0.6 4.1 2 1.8 1.3 3 3.3 1.3 2 1.6 4.5h-3.1q-0.5-1.8-1.4-3.3zm15.8-6.5v20.2q0 2.8 0.6 4.9 0.7 1.9 1.9 3.2 1.2 1.2 3 1.8 1.8 0.6 4.1 0.6 2.3 0 4.1-0.6 1.8-0.6 3-1.8 1.3-1.3 1.9-3.2 0.7-2.1 0.7-4.9v-20.2h3.1v20.9q0 2.5-0.7 4.8-0.7 2.3-2.3 3.9-1.5 1.7-4 2.7-2.4 1-5.8 1-3.4 0-5.9-1-2.4-1-3.9-2.7-1.5-1.6-2.3-3.9-0.7-2.3-0.7-4.8v-20.9zm35.1 0v30h18.4v2.7h-21.5v-32.7zm43.1 0v2.6h-11.5v30.1h-3.1v-30.1h-11.4v-2.6z"/>
		<path id="Path 35" fill-rule="evenodd" class="s11" d="m457.6 551.4l12.9 32.7h-3.4l-4-10.2h-15l-3.9 10.2h-3.3l13.2-32.7zm4.4 19.8l-6.3-16.7-6.6 16.7zm26-19.8q7.5 0.1 11.3 4.2 3.8 4 3.8 12.1 0 8.2-3.8 12.2-3.8 4-11.3 4.2h-11.4v-32.7zm-1.5 30q3.5 0 6-0.7 2.6-0.8 4.3-2.5 1.6-1.6 2.4-4.2 0.8-2.6 0.8-6.3 0-3.7-0.8-6.3-0.8-2.6-2.4-4.2-1.7-1.7-4.3-2.4-2.5-0.8-6-0.8h-6.7v27.4zm63.3-30q7.5 0.1 11.3 4.2 3.8 4 3.8 12.1 0 8.2-3.8 12.2-3.8 4-11.3 4.2h-11.4v-32.7zm-1.5 30q3.5 0 6.1-0.7 2.5-0.8 4.2-2.5 1.7-1.6 2.4-4.2 0.8-2.6 0.8-6.3 0-3.7-0.8-6.3-0.7-2.6-2.4-4.2-1.7-1.7-4.2-2.4-2.6-0.8-6.1-0.8h-6.7v27.4zm47.6-30v2.6h-19.5v11.8h18.3v2.7h-18.3v12.9h19.8v2.7h-23v-32.7zm57.5 6.5q-0.9-1.5-2.3-2.5-1.3-1-3-1.5-1.6-0.6-3.4-0.6-3.3 0-5.6 1.3-2.3 1.2-3.9 3.3-1.4 2-2.2 4.5-0.7 2.6-0.7 5.3 0 2.7 0.7 5.3 0.8 2.5 2.2 4.6 1.6 2 3.9 3.3 2.3 1.2 5.6 1.2 2.3 0 4.2-0.8 1.8-0.9 3.1-2.3 1.4-1.4 2.2-3.3 0.8-1.9 1.1-4.1h3.1q-0.3 3-1.4 5.5-1.1 2.4-2.9 4.1-1.7 1.7-4.1 2.6-2.4 0.9-5.3 0.9-3.8 0-6.8-1.4-2.9-1.4-4.8-3.7-2-2.4-2.9-5.4-1-3.1-1-6.5 0-3.4 1-6.5 0.9-3 2.9-5.4 1.9-2.3 4.8-3.7 3-1.4 6.8-1.4 2.4 0 4.6 0.7 2.2 0.6 4 2 1.9 1.3 3.1 3.3 1.2 2 1.5 4.5h-3.1q-0.4-1.8-1.4-3.3zm13.2-6.5h3.2v32.7h-3.2zm35.9 0v2.6h-19.5v11.8h18.3v2.7h-18.3v12.9h19.8v2.7h-23v-32.7zm11.3 0l19.1 27.6h0.1v-27.6h3.2v32.7h-3.5l-19.2-27.7h-0.1v27.7h-3.1v-32.7zm54.8 6.5q-0.9-1.5-2.3-2.5-1.3-1-3-1.5-1.6-0.6-3.4-0.6-3.2 0-5.6 1.3-2.3 1.2-3.9 3.3-1.4 2-2.2 4.5-0.7 2.6-0.7 5.3 0 2.7 0.7 5.3 0.8 2.6 2.2 4.6 1.6 2 3.9 3.3 2.4 1.2 5.6 1.2 2.3 0 4.2-0.8 1.8-0.9 3.2-2.3 1.3-1.4 2.1-3.3 0.8-1.9 1.1-4.1h3.1q-0.3 3-1.4 5.5-1.1 2.4-2.9 4.1-1.7 1.7-4.1 2.6-2.4 0.9-5.3 0.9-3.8 0-6.8-1.4-2.9-1.4-4.8-3.7-2-2.4-2.9-5.4-1-3.1-1-6.5 0-3.4 1-6.4 0.9-3.1 2.9-5.4 1.9-2.4 4.8-3.8 3-1.4 6.8-1.4 2.4 0 4.6 0.7 2.2 0.6 4 2 1.9 1.4 3.1 3.3 1.2 2 1.5 4.6h-3.1q-0.4-1.9-1.4-3.4zm13.2-6.5h3.2v32.7h-3.2zm26.4 0l12.9 32.7h-3.4l-4-10.2h-15l-3.9 10.2h-3.4l13.3-32.7zm4.4 19.9l-6.3-16.8-6.6 16.8zm16.9 6.2q0.8 1.7 2.2 2.7 1.5 1 3.5 1.5 2 0.4 4.2 0.4 1.3 0 2.8-0.4 1.5-0.3 2.8-1.1 1.4-0.8 2.3-2.1 0.8-1.2 0.8-3 0-1.4-0.6-2.4-0.6-1-1.6-1.7-1-0.7-2.2-1.1-1.2-0.5-2.3-0.7l-7.4-1.8q-1.4-0.4-2.8-0.9-1.3-0.6-2.3-1.5-1-0.9-1.7-2.3-0.6-1.3-0.6-3.2 0-1.2 0.5-2.8 0.4-1.6 1.7-3 1.3-1.5 3.5-2.4 2.2-1 5.6-1 2.5 0 4.7 0.6 2.2 0.7 3.9 1.9 1.6 1.3 2.6 3.2 1 1.9 1 4.5h-3.1q-0.1-1.9-0.9-3.3-0.7-1.4-2-2.3-1.2-1-2.8-1.5-1.6-0.5-3.3-0.5-1.6 0-3.1 0.4-1.5 0.3-2.7 1.1-1.1 0.7-1.8 2-0.7 1.2-0.7 3 0 1.2 0.4 2.1 0.4 0.8 1.1 1.4 0.7 0.6 1.6 0.9 0.9 0.4 1.9 0.6l8 2q1.8 0.5 3.3 1.2 1.6 0.6 2.7 1.6 1.2 1 1.9 2.4 0.7 1.4 0.7 3.4 0 0.6-0.2 1.5-0.1 0.9-0.5 2-0.4 1-1.3 2-0.8 1.1-2.2 1.9-1.4 0.9-3.4 1.4-2.1 0.5-5 0.5-2.9 0-5.4-0.6-2.5-0.7-4.2-2.1-1.8-1.4-2.8-3.5-0.9-2.2-0.7-5.2h3.1q-0.1 2.5 0.8 4.2z"/>
	</g>
</svg>